<?xml version="1.0" standalone="no"?>
<!DOCTYPE svg PUBLIC "-//W3C//DTD SVG 1.1//EN" "http://www.w3.org/Graphics/SVG/1.1/DTD/svg11.dtd">

<svg width="135" height="50" viewBox="0 0 135 50" 
  xmlns="http://www.w3.org/2000/svg"
  xmlns:xlink="http://www.w3.org/1999/xlink">


<polyline points="0.0, 40.48207438089451 0.7988165680473372, 39.35883547381522 1.5976331360946745, 39.60821296813438 2.396449704142012, 39.09874875612449 3.195266272189349, 39.05474836830531 3.994082840236686, 39.1708205717561 4.792899408284024, 38.636197337744576 5.591715976331361, 38.44689289498113 6.390532544378698, 36.173519349755864 7.189349112426036, 34.010571470059915 7.988165680473372, 34.5135620057348 8.78698224852071, 34.156689787614305 9.585798816568047, 34.44333033996468 10.384615384615385, 34.8753328994852 11.183431952662723, 34.93034004536928 11.982248520710058, 34.49126142225769 12.781065088757396, 34.15747489900794 13.579881656804734, 33.86305299044069 14.378698224852071, 33.62487928526994 15.177514792899409, 35.323675081428696 15.976331360946745, 34.32315311054649 16.775147928994084, 33.225150433885545 17.57396449704142, 27.246204434877054 18.37278106508876, 26.226638271838777 19.171597633136095, 26.362551599752752 19.970414201183434, 12.695663754497746 20.76923076923077, 13.308677416379785 21.56804733727811, 17.037632407276046 22.366863905325445, 17.36035925138428 23.16568047337278, 20.95267850369431 23.964497041420117, 18.202829494965048 24.763313609467456, 17.323055922465162 25.562130177514792, 16.567996622241985 26.36094674556213, 16.6014581709983 27.159763313609467, 16.006593670363163 27.958579881656807, 16.262690758464686 28.757396449704142, 15.09084522150818 29.55621301775148, 16.098298060488094 30.355029585798817, 15.82344240898811 31.153846153846157, 15.850473412862131 31.95266272189349, 16.396157021233652 32.751479289940825, 15.586651761036652 33.55029585798817, 15.80265987250379 34.349112426035504, 15.287994598870528 35.14792899408284, 14.372919774431182 35.94674556213018, 15.303536118899807 36.74556213017752, 14.6622834413485 37.54437869822485, 14.541683641256805 38.34319526627219, 12.96621354081989 39.142011834319526, 12.979157093265146 39.94082840236687, 6.48290809098282 40.7396449704142, 7.194949223333874 41.53846153846154, 6.639619168149951 42.337278106508876, 6.396031442824521 43.13609467455622, 0.0 43.93491124260355, 15.525852561104644 44.73372781065089, 16.893379852331734 45.532544378698226, 14.50215981275646 46.33136094674556, 14.80683280735287 47.1301775147929, 15.327157592299741 47.928994082840234, 15.813605618363663 48.72781065088758, 21.29112038352506 49.52662721893491, 18.062135339845057 50.32544378698225, 17.145732967210634 51.124260355029584, 18.342846605730458 51.92307692307693, 18.202732546100698 52.72189349112426, 17.919955788743398 53.5207100591716, 18.635172072825835 54.319526627218934, 19.883970282871598 55.11834319526627, 18.865853178797444 55.91715976331361, 19.17230405598177 56.71597633136094, 17.676800748773 57.514792899408285, 19.1204901307445 58.31360946745562, 24.796895217717054 59.11242603550296, 26.624628616162116 59.91124260355029, 27.10681255790046 60.710059171597635, 27.555346036716372 61.50887573964497, 27.107623391761898 62.307692307692314, 27.966688297634207 63.10650887573964, 26.08856946866197 63.90532544378698, 26.81999321677057 64.70414201183432, 27.512695187292323 65.50295857988165, 29.434768817276556 66.30177514792899, 29.384501378977912 67.10059171597634, 27.684248599903654 67.89940828402366, 27.42902224746096 68.69822485207101, 27.407883135604937 69.49704142011834, 26.686657213930644 70.29585798816568, 27.59341134391277 71.09467455621302, 27.36353270851854 71.89349112426036, 26.834760922499623 72.6923076923077, 25.2224886032346 73.49112426035504, 29.881862983199536 74.28994082840237, 38.39360824207373 75.0887573964497, 39.34960037889015 75.88757396449704, 38.63130265384181 76.68639053254438, 38.73761334700714 77.48520710059172, 41.025237088367994 78.28402366863905, 38.296875893622165 79.0828402366864, 39.80263844504167 79.88165680473374, 43.784048699244174 80.68047337278107, 45.66680609088444 81.4792899408284, 45.47939100764155 82.27810650887574, 43.484137419726295 83.07692307692308, 42.49583535079999 83.87573964497041, 44.45195872094608 84.67455621301775, 47.28247821723616 85.4733727810651, 50.0 86.27218934911244, 47.64350207876746 87.07100591715975, 48.763430119691826 87.8698224852071, 49.277327257113285 88.66863905325444, 48.99176317487897 89.46745562130178, 48.16935206569195 90.26627218934911, 49.011014513988655 91.06508875739645, 48.09549652991773 91.8639053254438, 46.956269726389024 92.66272189349112, 47.70389484377876 93.46153846153845, 48.86920090525652 94.2603550295858, 46.747345869349424 95.05917159763314, 47.71275632942974 95.85798816568047, 48.62221056116188 96.65680473372781, 49.436602486571374 97.45562130177515, 49.523854447159174 98.2544378698225, 47.85162128926635 99.05325443786982, 48.371330483489864 99.85207100591715, 48.88347497325275 100.6508875739645, 48.174688141340994 101.44970414201183, 48.706740717993405 102.24852071005917, 48.395156480576404 103.04733727810651, 48.15046841687356 103.84615384615385, 47.21496091480832 104.64497041420118, 46.01082343807552 105.44378698224853, 47.00409883657487 106.24260355029585, 47.9398248270422 107.0414201183432, 47.598011925456724 107.84023668639053, 47.17492982663497 108.63905325443787, 46.39887032735473 109.43786982248521, 47.02159491758546 110.23668639053254, 47.3203279536489 111.03550295857988, 47.036898439789404 111.83431952662723, 46.769212204314115 112.63313609467457, 48.0332396658481 113.43195266272188, 48.13894144374942 114.23076923076923, 48.00771694826997 115.02958579881657, 47.71042949761828 115.82840236686391, 47.994495078100165 116.62721893491124, 48.505778041132544 117.42603550295858, 48.87023379858363 118.22485207100593, 48.535622246199644 119.02366863905324, 47.80675987283326 119.82248520710058, 47.68495343499406 120.62130177514793, 47.08523768130012 121.42011834319527, 46.463898934277836 122.2189349112426, 46.96351373865712 123.01775147928994, 45.50123821134992 123.81656804733728, 47.229473253778885 124.61538461538463, 45.94623378187342 125.41420118343194, 45.68401400078499 126.21301775147928, 47.572692154400706 127.01183431952663, 49.175645043593505 127.81065088757396, 47.67846960973509 128.60946745562129, 48.27248801774681 129.40828402366864, 46.853017161335195 130.20710059171597, 47.84937702735534 131.0059171597633, 46.48098718312571 131.80473372781066, 46.47327356465097 132.60355029585799, 46.38027495581912 133.40236686390534, 47.14091297507123 134.20118343195267, 47.13287632544201" fill="none" stroke="#ed5565" stroke-width="1.25"/>

</svg>