<?xml version="1.0" encoding="UTF-8"?>
<svg width="1200pt" height="1200pt" version="1.1" viewBox="0 0 1200 1200" xmlns="http://www.w3.org/2000/svg">
 <g>
  <path d="m600 75c-289.48 0-525 235.52-525 525s235.52 525 525 525 525-235.52 525-525-235.52-525-525-525zm0 997.5c-260.54 0-472.5-211.96-472.5-472.5s211.96-472.5 472.5-472.5 472.5 211.96 472.5 472.5-211.96 472.5-472.5 472.5z"/>
  <path d="m600 181.73c-230.63 0-418.27 187.64-418.27 418.27 0 230.63 187.63 418.27 418.27 418.27s418.27-187.63 418.27-418.27-187.63-418.27-418.27-418.27zm0 799.03c-209.95 0-380.77-170.8-380.77-380.77s170.81-380.77 380.77-380.77 380.77 170.81 380.77 380.77-170.81 380.77-380.77 380.77z"/>
  <path d="m600.46 423.98c13.859 0 27.465 1.6367 40.629 4.7344 0.10547 0.023437 0.21094 0.050781 0.31641 0.066406 31.363 7.4414 60.148 23.391 83.52 46.754 10.254 10.246 26.879 10.254 37.117 0 10.254-10.254 10.254-26.871 0-37.125-25.5-25.5-55.988-44.16-89.227-55.223v-70.117c0-14.496-11.754-26.25-26.25-26.25s-26.25 11.754-26.25 26.25v59.301c-6.5703-0.5625-13.184-0.89844-19.852-0.89844-6.6758 0-13.289 0.33594-19.859 0.89844v-59.301c0-14.496-11.754-26.25-26.25-26.25-14.496 0-26.25 11.754-26.25 26.25v70.117c-33.238 11.062-63.727 29.73-89.219 55.223-43.176 43.16-66.949 100.55-66.949 161.59s23.773 118.43 66.938 161.59c25.5 25.5 55.98 44.16 89.219 55.223v70.117c0 14.496 11.754 26.25 26.25 26.25s26.25-11.754 26.25-26.25v-59.301c6.5703 0.5625 13.191 0.89844 19.859 0.89844s13.289-0.33594 19.852-0.89844v59.301c0 14.496 11.754 26.25 26.25 26.25 14.496 0 26.25-11.754 26.25-26.25v-70.109c33.246-11.062 63.734-29.73 89.227-55.23 10.254-10.246 10.254-26.871 0-37.117-10.254-10.254-26.863-10.254-37.117 0-23.379 23.371-52.176 39.324-83.551 46.762-0.082031 0.015625-0.16406 0.039062-0.24609 0.050781-13.176 3.1055-26.797 4.7383-40.672 4.7383-13.801 0-27.336-1.6211-40.449-4.6875-0.21875-0.046875-0.42578-0.10547-0.64453-0.14062-31.305-7.4531-60.047-23.391-83.379-46.727-33.23-33.25-51.535-77.449-51.535-124.46 0-47.023 18.309-91.223 51.555-124.46 33.246-33.25 77.453-51.562 124.47-51.562z"/>
 </g>
</svg>
